<svg width="85" height="50" viewBox="0 0 85 50" fill="none" xmlns="http://www.w3.org/2000/svg">
<path d="M17.3 35.6L17.4 35.7L42.6 49.8L67.8 35.7L67.9 35.6L67.6 35.4L62.8 32.7L58.4 30.3L53.2 27.4L48.9 24.9H48.8L42.6 21.4L36.5 24.9H36.4L26.8 30.3L17.7 35.4L17.3 35.6Z" fill="#8459E8"/>
<path d="M17.3 24.9L26.8 30.3H26.9L42.6 39.1L58.3 30.3H58.4L62.9 27.8L67.9 24.9L62.8 22L58.4 19.6L58.3 19.5L42.6 10.7L26.9 19.5L26.8 19.6L17.3 24.9Z" fill="#D600BD"/>
<path d="M17.3 14.2L17.7 14.4L26.8 19.6L36.4 24.9L36.5 25L42.6 28.4L48.8 25L48.9 24.9L53.3 22.5L58.4 19.6L62.8 17.1L67.6 14.4L67.9 14.2H67.8L42.6 0L17.4 14.2H17.3Z" fill="#0E6DFB"/>
<path d="M4.20001 23.1L4 23.2L0.900024 24.9L4.09998 26.7L4.40002 26.9L13.2 31.8L15.8 30.3L7.70001 25.8L6.20001 25L7.70001 24.1L15.9 19.4L13.3 18L4.20001 23.1Z" fill="black"/>
<path d="M81.3 23.2L81 23.1L72 18L69.3 19.4L77.5 24.1L79 25L77.5 25.8L69.5 30.3L72.1 31.8L80.9 26.9L81.1 26.7L84.3 24.9L81.3 23.2Z" fill="black"/>
<path opacity="0.2" d="M61.9 32.3L60.1 33.3L60 33.4L42.6 43.2L25.2 33.4L25.1 33.3L23.4 32.3L26.9 30.3L42.6 39.1L58.3 30.3L61.9 32.3Z" fill="black"/>
<path opacity="0.2" d="M62 21.6L56.8 24.5L55 25.5L52.5 26.9L52.3 27L50.6 28H50.5L42.6 32.5L34.7 28H34.6L32.9 27L32.8 26.9L25.1 22.6L23.3 21.6L26.8 19.6L36.4 24.9L36.5 25L42.6 28.4L48.8 25L48.9 24.9L53.3 22.5L58.4 19.6L62 21.6Z" fill="black"/>
</svg>
