<?xml version="1.0" encoding="UTF-8"?>
<svg id="Layer_1" xmlns="http://www.w3.org/2000/svg" version="1.1" viewBox="0 0 596.3 107.5">
  <!-- Generator: Adobe Illustrator 29.7.1, SVG Export Plug-In . SVG Version: 2.1.1 Build 8)  -->
  <defs>
    <style>
      .st0 {
        fill: #8459e8;
      }

      .st1 {
        fill: #0e6dfb;
      }

      .st2 {
        opacity: .2;
      }

      .st3 {
        fill: #d600bd;
      }
    </style>
  </defs>
  <g>
    <path class="st0" d="M37.5,64h33.1v30.9c-7.4,7.9-19.1,12.6-30.3,12.6C18.5,107.5,0,89.7,0,68.6S18.5,29.8,40.3,29.8s22.8,4.7,30.3,12.6l-11.7,10.5c-4.5-5.1-11.7-8.4-18.6-8.4-12.9,0-23.7,11.1-23.7,24.2s10.8,24.3,23.7,24.3,10.4-1.7,14.5-4.8v-11.5h-17.4v-12.6Z"/>
    <path class="st0" d="M125.4,89.5l9,9.2c-5,5.2-14.8,8.7-23.1,8.7-16.8,0-30.2-12.4-30.2-29.7s12.8-29.4,29.3-29.4,28.4,12.8,28.4,33.8h-42.5c1.4,7.7,6.7,13,14.4,13s11-2.3,14.6-5.6ZM96.4,72.6h27.1c-1.3-7-5.8-11.9-12.9-11.9s-12.5,4.7-14.2,11.9Z"/>
    <path class="st0" d="M145.7,77.8c0-16.3,13.9-29.5,30.8-29.5s30.8,13.2,30.8,29.5-13.9,29.6-30.8,29.6-30.8-13.3-30.8-29.6ZM191.9,77.8c0-8.9-6.9-16.1-15.4-16.1s-15.5,7.2-15.5,16.1,7,16.2,15.5,16.2,15.4-7.3,15.4-16.2Z"/>
    <path class="st0" d="M220.4,31.1h27c25.2,0,43.2,15.5,43.2,37.5s-17.9,37.6-43.2,37.6h-27V31.1ZM249.5,91.5c14.3,0,24.5-9.5,24.5-23s-10.2-22.8-24.5-22.8h-12.9v45.8h12.9Z"/>
    <path class="st0" d="M351.9,72.4v33.8h-15.4v-5.7c-4,4.5-10.5,7-16.7,7-12,0-21.2-7.2-21.2-18s10.4-18.8,23.4-18.8,9.7,1,14.5,3v-1.2c0-6-3.8-11.3-13.1-11.3s-10.2,1.7-14.6,4l-5.4-10.6c8-4,15.7-6.2,23.6-6.2,14.8,0,24.9,9.3,24.9,24ZM336.5,88.3v-5.1c-3.6-1.4-7.9-2.2-12.2-2.2s-10.5,3.4-10.5,8,4.2,7.4,9.6,7.4,11.9-2.8,13.1-8.1Z"/>
    <path d="M366.9,97.3c0-5.1,4.4-9.7,10.2-9.7s9.7,4.6,9.7,9.7-4.4,10.2-9.7,10.2-10.2-4.6-10.2-10.2Z"/>
    <path d="M454.1,93.3h-32.6l-5.2,12.9h-18l30.6-75.1h18l30.6,75.1h-18.1l-5.2-12.9ZM449,80.7l-11.1-27.4-11.1,27.4h22.3Z"/>
    <path d="M489.7,31.1h16.2v75.1h-16.2V31.1Z"/>
  </g>
  <polygon class="st0" points="529.3 35.6 529.4 35.7 554.6 49.8 579.8 35.7 579.9 35.6 579.6 35.4 574.8 32.7 570.4 30.3 565.2 27.4 560.9 24.9 560.8 24.9 560.8 24.9 554.6 21.4 548.5 24.9 548.5 24.9 548.4 24.9 538.8 30.3 529.7 35.4 529.3 35.6"/>
  <polygon class="st3" points="529.3 24.9 538.8 30.3 538.9 30.3 554.6 39.1 570.3 30.3 570.4 30.3 574.9 27.8 579.9 24.9 574.8 22 570.4 19.6 570.3 19.5 554.6 10.7 538.9 19.5 538.8 19.6 529.3 24.9"/>
  <polygon class="st1" points="529.3 14.2 529.7 14.4 538.8 19.6 548.4 24.9 548.5 25 554.6 28.4 560.8 25 560.9 24.9 565.3 22.5 565.3 22.5 570.4 19.6 574.8 17.1 579.6 14.4 579.9 14.2 579.8 14.2 554.6 0 529.4 14.2 529.3 14.2"/>
  <polygon points="516.2 23.1 516 23.2 512.9 24.9 516.1 26.7 516.4 26.9 525.2 31.8 527.8 30.3 519.7 25.8 518.2 25 519.7 24.1 527.9 19.4 525.3 18 516.2 23.1"/>
  <polygon points="593.3 23.2 593 23.1 584 18 581.3 19.4 589.5 24.1 591 25 589.5 25.8 581.5 30.3 584.1 31.8 592.9 26.9 593.1 26.7 596.3 24.9 593.3 23.2"/>
  <polygon class="st2" points="573.9 32.3 572.1 33.3 572 33.4 554.6 43.2 537.2 33.4 537.1 33.3 535.4 32.3 538.9 30.3 538.9 30.3 554.6 39.1 570.3 30.3 570.3 30.3 573.9 32.3"/>
  <polygon class="st2" points="574 21.6 568.8 24.5 567 25.5 564.5 26.9 564.3 27 562.6 28 562.5 28 554.6 32.5 546.7 28 546.6 28 544.9 27 544.8 26.9 537.1 22.6 535.3 21.6 538.8 19.6 548.4 24.9 548.5 25 554.6 28.4 560.8 25 560.9 24.9 565.3 22.5 565.3 22.5 570.4 19.6 574 21.6"/>
</svg>